<svg width="124" height="20" viewBox="0 0 124 20" fill="none" xmlns="http://www.w3.org/2000/svg">
<path d="M18.6945 8.59371L14.8013 12.3887L15.7207 17.7487C15.7607 17.9831 15.6645 18.22 15.472 18.36C15.3632 18.4393 15.2338 18.4793 15.1045 18.4793C15.0051 18.4793 14.9051 18.4556 14.8138 18.4075L10.0001 15.8768L5.18697 18.4068C4.97697 18.5181 4.72135 18.5 4.52885 18.3593C4.33635 18.2193 4.2401 17.9825 4.2801 17.7481L5.19947 12.3881L1.30572 8.59371C1.13572 8.42746 1.07385 8.17871 1.1476 7.95309C1.22135 7.72746 1.41697 7.56184 1.6526 7.52746L7.03322 6.74621L9.43947 1.86996C9.6501 1.44309 10.3501 1.44309 10.5607 1.86996L12.967 6.74621L18.3476 7.52746C18.5832 7.56184 18.7788 7.72684 18.8526 7.95309C18.9263 8.17934 18.8645 8.42684 18.6945 8.59371Z" fill="#267EEC"/>
<path d="M44.6945 8.59371L40.8013 12.3887L41.7207 17.7487C41.7607 17.9831 41.6645 18.22 41.472 18.36C41.3632 18.4393 41.2338 18.4793 41.1045 18.4793C41.0051 18.4793 40.9051 18.4556 40.8138 18.4075L36.0001 15.8768L31.187 18.4068C30.977 18.5181 30.7213 18.5 30.5288 18.3593C30.3363 18.2193 30.2401 17.9825 30.2801 17.7481L31.1995 12.3881L27.3057 8.59371C27.1357 8.42746 27.0738 8.17871 27.1476 7.95309C27.2213 7.72746 27.417 7.56184 27.6526 7.52746L33.0332 6.74621L35.4395 1.86996C35.6501 1.44309 36.3501 1.44309 36.5607 1.86996L38.967 6.74621L44.3476 7.52746C44.5832 7.56184 44.7788 7.72684 44.8526 7.95309C44.9263 8.17934 44.8645 8.42684 44.6945 8.59371Z" fill="#267EEC"/>
<path d="M70.6945 8.59371L66.8013 12.3887L67.7207 17.7487C67.7607 17.9831 67.6645 18.22 67.472 18.36C67.3632 18.4393 67.2338 18.4793 67.1045 18.4793C67.0051 18.4793 66.9051 18.4556 66.8138 18.4075L62.0001 15.8768L57.187 18.4068C56.977 18.5181 56.7213 18.5 56.5288 18.3593C56.3363 18.2193 56.2401 17.9825 56.2801 17.7481L57.1995 12.3881L53.3057 8.59371C53.1357 8.42746 53.0738 8.17871 53.1476 7.95309C53.2213 7.72746 53.417 7.56184 53.6526 7.52746L59.0332 6.74621L61.4395 1.86996C61.6501 1.44309 62.3501 1.44309 62.5607 1.86996L64.967 6.74621L70.3476 7.52746C70.5832 7.56184 70.7788 7.72684 70.8526 7.95309C70.9263 8.17934 70.8645 8.42684 70.6945 8.59371Z" fill="#267EEC"/>
<path d="M96.6945 8.59371L92.8013 12.3887L93.7207 17.7487C93.7607 17.9831 93.6645 18.22 93.472 18.36C93.3632 18.4393 93.2338 18.4793 93.1045 18.4793C93.0051 18.4793 92.9051 18.4556 92.8138 18.4075L88.0001 15.8768L83.187 18.4068C82.977 18.5181 82.7213 18.5 82.5288 18.3593C82.3363 18.2193 82.2401 17.9825 82.2801 17.7481L83.1995 12.3881L79.3057 8.59371C79.1357 8.42746 79.0738 8.17871 79.1476 7.95309C79.2213 7.72746 79.417 7.56184 79.6526 7.52746L85.0332 6.74621L87.4395 1.86996C87.6501 1.44309 88.3501 1.44309 88.5607 1.86996L90.967 6.74621L96.3476 7.52746C96.5832 7.56184 96.7788 7.72684 96.8526 7.95309C96.9263 8.17934 96.8645 8.42684 96.6945 8.59371Z" fill="#267EEC"/>
<path d="M122.694 8.59371L118.801 12.3887L119.721 17.7487C119.761 17.9831 119.664 18.22 119.472 18.36C119.363 18.4393 119.234 18.4793 119.104 18.4793C119.005 18.4793 118.905 18.4556 118.814 18.4075L114 15.8768L109.187 18.4068C108.977 18.5181 108.721 18.5 108.529 18.3593C108.336 18.2193 108.24 17.9825 108.28 17.7481L109.199 12.3881L105.306 8.59371C105.136 8.42746 105.074 8.17871 105.148 7.95309C105.221 7.72746 105.417 7.56184 105.653 7.52746L111.033 6.74621L113.439 1.86996C113.65 1.44309 114.35 1.44309 114.561 1.86996L116.967 6.74621L122.348 7.52746C122.583 7.56184 122.779 7.72684 122.853 7.95309C122.926 8.17934 122.864 8.42684 122.694 8.59371Z" fill="#267EEC"/>
</svg>
