<svg width="20" height="16" viewBox="0 0 20 16" fill="none" xmlns="http://www.w3.org/2000/svg">
<path d="M18.125 3H1.875C1.18469 3 0.625 2.44031 0.625 1.75C0.625 1.05969 1.18469 0.5 1.875 0.5H18.125C18.8153 0.5 19.375 1.05969 19.375 1.75C19.375 2.44031 18.8153 3 18.125 3Z" fill="#112446"/>
<path d="M18.125 15.5H1.875C1.18469 15.5 0.625 14.9403 0.625 14.25C0.625 13.5597 1.18469 13 1.875 13H18.125C18.8153 13 19.375 13.5597 19.375 14.25C19.375 14.9403 18.8153 15.5 18.125 15.5Z" fill="#112446"/>
<path d="M18.125 9.25H1.875C1.18469 9.25 0.625 8.69031 0.625 8C0.625 7.30969 1.18469 6.75 1.875 6.75H18.125C18.8153 6.75 19.375 7.30969 19.375 8C19.375 8.69031 18.8153 9.25 18.125 9.25Z" fill="#112446"/>
</svg>
