<svg width="13" height="12" viewBox="0 0 13 12" fill="none" xmlns="http://www.w3.org/2000/svg">
<g clip-path="url(#clip0_506_82680)">
<path d="M7.15432 6.00973L11.8269 1.33703C12.131 1.03309 12.131 0.541661 11.8269 0.237721C11.5229 -0.0662194 11.0315 -0.0662194 10.7276 0.237721L6.05486 4.91043L1.3823 0.237721C1.07822 -0.0662194 0.586933 -0.0662194 0.282993 0.237721C-0.021089 0.541661 -0.021089 1.03309 0.282993 1.33703L4.95555 6.00973L0.282993 10.6824C-0.021089 10.9864 -0.021089 11.4778 0.282993 11.7817C0.434465 11.9334 0.633628 12.0095 0.832648 12.0095C1.03167 12.0095 1.23069 11.9334 1.3823 11.7817L6.05486 7.10904L10.7276 11.7817C10.8792 11.9334 11.0782 12.0095 11.2772 12.0095C11.4762 12.0095 11.6753 11.9334 11.8269 11.7817C12.131 11.4778 12.131 10.9864 11.8269 10.6824L7.15432 6.00973Z" fill="#E21313"/>
</g>
<defs>
<clipPath id="clip0_506_82680">
<rect width="12" height="12" fill="white" transform="translate(0.0549316)"/>
</clipPath>
</defs>
</svg>
