<svg width="13" height="12" viewBox="0 0 13 12" fill="none" xmlns="http://www.w3.org/2000/svg">
<path d="M9.83309 5.53176L4.49294 0.191706C4.36943 0.068097 4.20455 0 4.02875 0C3.85294 0 3.68807 0.068097 3.56456 0.191706L3.17129 0.584873C2.91539 0.841066 2.91539 1.25745 3.17129 1.51326L7.65555 5.99751L3.16632 10.4867C3.0428 10.6104 2.97461 10.7751 2.97461 10.9508C2.97461 11.1267 3.0428 11.2915 3.16632 11.4152L3.55958 11.8083C3.68319 11.9319 3.84797 12 4.02377 12C4.19958 12 4.36445 11.9319 4.48796 11.8083L9.83309 6.46336C9.95689 6.33936 10.0249 6.1738 10.0245 5.99781C10.0249 5.82112 9.95689 5.65566 9.83309 5.53176Z" fill="#112446"/>
</svg>
