<svg width="20" height="20" viewBox="0 0 20 20" fill="none" xmlns="http://www.w3.org/2000/svg">
<path d="M18.7496 5.5375C18.7268 4.72396 18.3875 3.9514 17.8039 3.38414C17.2203 2.81688 16.4385 2.49968 15.6246 2.5H4.37459C3.56073 2.49968 2.77885 2.81688 2.19525 3.38414C1.61165 3.9514 1.27238 4.72396 1.24959 5.5375C1.24623 5.56657 1.24623 5.59593 1.24959 5.625V14.375C1.24959 15.2038 1.57883 15.9987 2.16488 16.5847C2.75093 17.1708 3.54579 17.5 4.37459 17.5H15.6246C16.4534 17.5 17.2482 17.1708 17.8343 16.5847C18.4203 15.9987 18.7496 15.2038 18.7496 14.375V5.625C18.7529 5.59593 18.7529 5.56657 18.7496 5.5375ZM4.37459 3.75H15.6246C16.0722 3.74375 16.5072 3.89783 16.8511 4.1844C17.195 4.47097 17.425 4.87112 17.4996 5.3125L11.0371 9.6C10.7296 9.80425 10.3687 9.9132 9.99959 9.9132C9.63047 9.9132 9.26955 9.80425 8.96209 9.6L2.53084 5.3125C2.60454 4.87645 2.83001 4.48048 3.16739 4.19456C3.50477 3.90865 3.93235 3.75119 4.37459 3.75ZM17.4996 14.375C17.4996 14.8723 17.302 15.3492 16.9504 15.7008C16.5988 16.0525 16.1219 16.25 15.6246 16.25H4.37459C3.87731 16.25 3.40039 16.0525 3.04876 15.7008C2.69713 15.3492 2.49959 14.8723 2.49959 14.375V6.7875L8.26834 10.625C8.78122 10.9663 9.38353 11.1484 9.99959 11.1484C10.6156 11.1484 11.218 10.9663 11.7308 10.625L17.4996 6.7875V14.375Z" fill="white"/>
</svg>
