<svg width="9" height="6" viewBox="0 0 9 6" fill="none" xmlns="http://www.w3.org/2000/svg">
<path d="M4.37531 5.66824C4.2931 5.66874 4.2116 5.65215 4.13549 5.61943C4.05938 5.58671 3.99016 5.53849 3.93179 5.47755L0.183713 1.53216C0.0660836 1.40833 0 1.2404 0 1.06528C0 0.890174 0.0660836 0.722236 0.183713 0.598414C0.301342 0.474592 0.460882 0.405029 0.627235 0.405029C0.793588 0.405029 0.953128 0.474592 1.07076 0.598414L4.37531 4.08351L7.67986 0.60499C7.79937 0.497263 7.95308 0.440971 8.1103 0.447363C8.26752 0.453756 8.41665 0.522361 8.5279 0.63947C8.63916 0.756579 8.70433 0.913565 8.7104 1.07906C8.71647 1.24455 8.663 1.40636 8.56066 1.53216L4.81259 5.47755C4.69623 5.59903 4.53919 5.66751 4.37531 5.66824Z" fill="#737588"/>
</svg>
