<svg width="14" height="14" viewBox="0 0 14 14" fill="none" xmlns="http://www.w3.org/2000/svg">
<path d="M3.11074 7.54628L9.34092 13.7763C9.48502 13.9206 9.67737 14 9.88248 14C10.0876 14 10.2799 13.9206 10.424 13.7763L10.8828 13.3176C11.1814 13.0188 11.1814 12.533 10.8828 12.2345L5.65121 7.0029L10.8886 1.76547C11.0327 1.62126 11.1123 1.42901 11.1123 1.22402C11.1123 1.0188 11.0327 0.826562 10.8886 0.682239L10.4298 0.223657C10.2856 0.0794468 10.0934 0 9.88828 0C9.68318 0 9.49082 0.0794468 9.34673 0.223657L3.11074 6.45941C2.9663 6.60408 2.88697 6.79723 2.88743 7.00256C2.88697 7.20869 2.9663 7.40173 3.11074 7.54628Z" fill="#121F3E"/>
</svg>
