<svg width="119" height="30" viewBox="0 0 119 30" fill="white" xmlns="http://www.w3.org/2000/svg">
<path d="M13.56 8.6C13.56 9.28267 13.4107 9.88 13.112 10.392C12.8133 10.8827 12.408 11.2773 11.896 11.576C11.384 11.8533 10.808 11.992 10.168 11.992C9.528 11.992 8.94133 11.8533 8.408 11.576C7.896 11.2773 7.49067 10.8827 7.192 10.392C6.89333 9.88 6.744 9.28267 6.744 8.6C6.744 7.91733 6.89333 7.33067 7.192 6.84C7.49067 6.34933 7.896 5.96533 8.408 5.688C8.94133 5.41067 9.528 5.272 10.168 5.272C10.808 5.272 11.384 5.41067 11.896 5.688C12.408 5.96533 12.8133 6.34933 13.112 6.84C13.4107 7.33067 13.56 7.91733 13.56 8.6ZM10.616 22.872L16.76 15.32C17.5707 14.3173 18.264 13.272 18.84 12.184C19.416 11.096 19.704 9.90133 19.704 8.6C19.704 6.68 19.2667 5.09067 18.392 3.832C17.5387 2.552 16.3867 1.60267 14.936 0.983999C13.4853 0.343999 11.896 0.0239983 10.168 0.0239983C8.41867 0.0239983 6.81867 0.343999 5.368 0.983999C3.93867 1.60267 2.78667 2.552 1.912 3.832C1.03733 5.09067 0.6 6.68 0.6 8.6C0.6 9.77333 0.802667 10.808 1.208 11.704C1.63467 12.6 2.18933 13.368 2.872 14.008C3.576 14.6267 4.33333 15.096 5.144 15.416C5.976 15.736 6.79733 15.896 7.608 15.896C8.44 15.896 9.12267 15.8 9.656 15.608C10.2107 15.416 10.808 15.032 11.448 14.456L10.072 15.128L2.744 22.872H10.616ZM23.5525 23V0.599998H33.7925C35.8405 0.599998 37.6005 0.930665 39.0725 1.592C40.5658 2.25333 41.7178 3.21333 42.5285 4.472C43.3392 5.70933 43.7445 7.18133 43.7445 8.888C43.7445 10.5733 43.3392 12.0347 42.5285 13.272C41.7178 14.5093 40.5658 15.4693 39.0725 16.152C37.6005 16.8133 35.8405 17.144 33.7925 17.144H27.0725L29.8885 14.392V23H23.5525ZM29.8885 15.064L27.0725 12.152H33.4085C34.7312 12.152 35.7125 11.864 36.3525 11.288C37.0138 10.712 37.3445 9.912 37.3445 8.888C37.3445 7.84267 37.0138 7.032 36.3525 6.456C35.7125 5.88 34.7312 5.592 33.4085 5.592H27.0725L29.8885 2.68V15.064ZM46.702 23V5.656H52.494V10.712L51.63 9.272C52.142 7.97067 52.974 7 54.126 6.36C55.278 5.69867 56.6753 5.368 58.318 5.368V10.84C58.0407 10.7973 57.7953 10.776 57.582 10.776C57.39 10.7547 57.1767 10.744 56.942 10.744C55.7047 10.744 54.702 11.0853 53.934 11.768C53.166 12.4293 52.782 13.5173 52.782 15.032V23H46.702ZM69.3748 23.288C67.4761 23.288 65.7908 22.904 64.3188 22.136C62.8468 21.368 61.6841 20.312 60.8307 18.968C59.9988 17.6027 59.5828 16.0453 59.5828 14.296C59.5828 12.5467 59.9988 11 60.8307 9.656C61.6841 8.312 62.8468 7.26667 64.3188 6.52C65.7908 5.752 67.4761 5.368 69.3748 5.368C71.2734 5.368 72.9588 5.752 74.4308 6.52C75.9241 7.26667 77.0868 8.312 77.9188 9.656C78.7508 11 79.1668 12.5467 79.1668 14.296C79.1668 16.0453 78.7508 17.6027 77.9188 18.968C77.0868 20.312 75.9241 21.368 74.4308 22.136C72.9588 22.904 71.2734 23.288 69.3748 23.288ZM69.3748 18.456C70.0788 18.456 70.6974 18.296 71.2308 17.976C71.7854 17.656 72.2228 17.1867 72.5428 16.568C72.8628 15.928 73.0228 15.1707 73.0228 14.296C73.0228 13.4213 72.8628 12.6853 72.5428 12.088C72.2228 11.4693 71.7854 11 71.2308 10.68C70.6974 10.36 70.0788 10.2 69.3748 10.2C68.6921 10.2 68.0734 10.36 67.5188 10.68C66.9854 11 66.5481 11.4693 66.2068 12.088C65.8868 12.6853 65.7268 13.4213 65.7268 14.296C65.7268 15.1707 65.8868 15.928 66.2068 16.568C66.5481 17.1867 66.9854 17.656 67.5188 17.976C68.0734 18.296 68.6921 18.456 69.3748 18.456ZM79.4672 23L87.4353 12.536L87.3073 15.992L79.6593 5.656H86.5073L90.7953 11.768L88.2353 11.896L92.7793 5.656H99.2113L91.5633 15.768V12.44L99.4353 23H92.4913L88.0113 16.472L90.5713 16.824L86.0593 23H79.4672ZM103.303 29.496C102.386 29.496 101.458 29.3467 100.519 29.048C99.6017 28.7707 98.855 28.3973 98.279 27.928L100.391 23.672C100.754 23.992 101.17 24.2373 101.639 24.408C102.13 24.6 102.61 24.696 103.079 24.696C103.74 24.696 104.263 24.5467 104.647 24.248C105.031 23.9493 105.362 23.48 105.639 22.84L106.439 20.824L106.919 20.216L112.807 5.656H118.599L111.111 23.704C110.514 25.1973 109.82 26.36 109.031 27.192C108.263 28.0453 107.399 28.6427 106.439 28.984C105.5 29.3253 104.455 29.496 103.303 29.496ZM105.671 23.736L98.023 5.656H104.263L109.895 19.672L105.671 23.736Z" fill="white"/>
</svg>
