<svg width="16" height="16" viewBox="0 0 16 16" fill="none" xmlns="http://www.w3.org/2000/svg">
<path d="M5.33301 3.83325C5.05967 3.83325 4.83301 3.60659 4.83301 3.33325V1.33325C4.83301 1.05992 5.05967 0.833252 5.33301 0.833252C5.60634 0.833252 5.83301 1.05992 5.83301 1.33325V3.33325C5.83301 3.60659 5.60634 3.83325 5.33301 3.83325Z" fill="#7D7E83"/>
<path d="M10.667 3.83325C10.3937 3.83325 10.167 3.60659 10.167 3.33325V1.33325C10.167 1.05992 10.3937 0.833252 10.667 0.833252C10.9403 0.833252 11.167 1.05992 11.167 1.33325V3.33325C11.167 3.60659 10.9403 3.83325 10.667 3.83325Z" fill="#7D7E83"/>
<path d="M5.66667 9.66654C5.58 9.66654 5.49333 9.64654 5.41333 9.61321C5.32667 9.57988 5.26 9.53321 5.19333 9.47321C5.07333 9.34654 5 9.17988 5 8.99988C5 8.91321 5.02 8.82654 5.05333 8.74654C5.08667 8.66654 5.13333 8.59321 5.19333 8.52654C5.26 8.46654 5.32667 8.41988 5.41333 8.38654C5.65333 8.28654 5.95333 8.33988 6.14 8.52654C6.26 8.65321 6.33333 8.82654 6.33333 8.99988C6.33333 9.03988 6.32667 9.08654 6.32 9.13321C6.31333 9.17321 6.3 9.21321 6.28 9.25321C6.26667 9.29321 6.24667 9.33321 6.22 9.37321C6.2 9.40654 6.16667 9.43988 6.14 9.47321C6.01333 9.59321 5.84 9.66654 5.66667 9.66654Z" fill="#7D7E83"/>
<path d="M7.99967 9.66658C7.91301 9.66658 7.82634 9.64658 7.74634 9.61324C7.65967 9.57991 7.59301 9.53324 7.52634 9.47324C7.40634 9.34658 7.33301 9.17991 7.33301 8.99991C7.33301 8.91324 7.35301 8.82658 7.38634 8.74658C7.41967 8.66658 7.46634 8.59324 7.52634 8.52658C7.59301 8.46658 7.65967 8.41991 7.74634 8.38658C7.98634 8.27991 8.28634 8.33991 8.47301 8.52658C8.59301 8.65324 8.66634 8.82658 8.66634 8.99991C8.66634 9.03991 8.65967 9.08658 8.65301 9.13324C8.64634 9.17324 8.63301 9.21324 8.61301 9.25324C8.59967 9.29324 8.57967 9.33324 8.55301 9.37324C8.53301 9.40658 8.49967 9.43991 8.47301 9.47324C8.34634 9.59324 8.17301 9.66658 7.99967 9.66658Z" fill="#7D7E83"/>
<path d="M10.3337 9.66658C10.247 9.66658 10.1603 9.64658 10.0803 9.61324C9.99366 9.57991 9.92699 9.53324 9.86033 9.47324C9.83366 9.43991 9.80699 9.40658 9.78033 9.37324C9.75366 9.33324 9.73366 9.29324 9.72033 9.25324C9.70033 9.21324 9.68699 9.17324 9.68033 9.13324C9.67366 9.08658 9.66699 9.03991 9.66699 8.99991C9.66699 8.82658 9.74033 8.65324 9.86033 8.52658C9.92699 8.46658 9.99366 8.41991 10.0803 8.38658C10.327 8.27991 10.6203 8.33991 10.807 8.52658C10.927 8.65324 11.0003 8.82658 11.0003 8.99991C11.0003 9.03991 10.9937 9.08658 10.987 9.13324C10.9803 9.17324 10.967 9.21324 10.947 9.25324C10.9337 9.29324 10.9137 9.33324 10.887 9.37324C10.867 9.40658 10.8337 9.43991 10.807 9.47324C10.6803 9.59324 10.507 9.66658 10.3337 9.66658Z" fill="#7D7E83"/>
<path d="M5.66667 11.9997C5.58 11.9997 5.49333 11.9798 5.41333 11.9465C5.33333 11.9131 5.26 11.8664 5.19333 11.8064C5.07333 11.6797 5 11.5064 5 11.3331C5 11.2464 5.02 11.1597 5.05333 11.0797C5.08667 10.9931 5.13333 10.9198 5.19333 10.8598C5.44 10.6131 5.89333 10.6131 6.14 10.8598C6.26 10.9865 6.33333 11.1597 6.33333 11.3331C6.33333 11.5064 6.26 11.6797 6.14 11.8064C6.01333 11.9264 5.84 11.9997 5.66667 11.9997Z" fill="#7D7E83"/>
<path d="M7.99967 11.9997C7.82634 11.9997 7.65301 11.9264 7.52634 11.8064C7.40634 11.6797 7.33301 11.5064 7.33301 11.3331C7.33301 11.2464 7.35301 11.1597 7.38634 11.0797C7.41967 10.9931 7.46634 10.9198 7.52634 10.8598C7.77301 10.6131 8.22634 10.6131 8.47301 10.8598C8.53301 10.9198 8.57967 10.9931 8.61301 11.0797C8.64634 11.1597 8.66634 11.2464 8.66634 11.3331C8.66634 11.5064 8.59301 11.6797 8.47301 11.8064C8.34634 11.9264 8.17301 11.9997 7.99967 11.9997Z" fill="#7D7E83"/>
<path d="M10.3337 11.9999C10.1603 11.9999 9.98699 11.9266 9.86033 11.8066C9.80033 11.7466 9.75366 11.6733 9.72033 11.5866C9.68699 11.5066 9.66699 11.4199 9.66699 11.3333C9.66699 11.2466 9.68699 11.1599 9.72033 11.0799C9.75366 10.9933 9.80033 10.9199 9.86033 10.8599C10.0137 10.7066 10.247 10.6333 10.4603 10.6799C10.507 10.6866 10.547 10.6999 10.587 10.7199C10.627 10.7333 10.667 10.7533 10.707 10.7799C10.7403 10.7999 10.7737 10.8333 10.807 10.8599C10.927 10.9866 11.0003 11.1599 11.0003 11.3333C11.0003 11.5066 10.927 11.6799 10.807 11.8066C10.6803 11.9266 10.507 11.9999 10.3337 11.9999Z" fill="#7D7E83"/>
<path d="M13.6663 6.55981H2.33301C2.05967 6.55981 1.83301 6.33315 1.83301 6.05981C1.83301 5.78648 2.05967 5.55981 2.33301 5.55981H13.6663C13.9397 5.55981 14.1663 5.78648 14.1663 6.05981C14.1663 6.33315 13.9397 6.55981 13.6663 6.55981Z" fill="#7D7E83"/>
<path d="M10.6667 15.1666H5.33333C2.9 15.1666 1.5 13.7666 1.5 11.3333V5.66659C1.5 3.23325 2.9 1.83325 5.33333 1.83325H10.6667C13.1 1.83325 14.5 3.23325 14.5 5.66659V11.3333C14.5 13.7666 13.1 15.1666 10.6667 15.1666ZM5.33333 2.83325C3.42667 2.83325 2.5 3.75992 2.5 5.66659V11.3333C2.5 13.2399 3.42667 14.1666 5.33333 14.1666H10.6667C12.5733 14.1666 13.5 13.2399 13.5 11.3333V5.66659C13.5 3.75992 12.5733 2.83325 10.6667 2.83325H5.33333Z" fill="#7D7E83"/>
</svg>
