<svg width="42" height="28" viewBox="0 0 42 28" fill="none" xmlns="http://www.w3.org/2000/svg">
<g clip-path="url(#clip0_506_82868)">
<path d="M36.1795 1.0769H4.975C2.88605 1.0769 1.19263 2.73 1.19263 4.76921V23.2307C1.19263 25.27 2.88605 26.9231 4.975 26.9231H36.1795C38.2684 26.9231 39.9619 25.27 39.9619 23.2307V4.76921C39.9619 2.73 38.2684 1.0769 36.1795 1.0769Z" fill="white" stroke="black" stroke-opacity="0.1"/>
<path d="M24.1748 7.27441H15.8564V20.54H24.1748V7.27441Z" fill="#F26122"/>
<path d="M16.7522 13.9081C16.7453 12.6337 17.0351 11.3745 17.5996 10.2254C18.1641 9.07633 18.9886 8.06742 20.0108 7.27481C18.7357 6.29606 17.2043 5.68727 15.5915 5.51805C13.9788 5.34884 12.3499 5.62601 10.8909 6.3179C9.43191 7.00978 8.20181 8.08844 7.34118 9.43058C6.48057 10.7727 6.02417 12.3241 6.02417 13.9075C6.02417 15.4909 6.48057 17.0424 7.34118 18.3846C8.20181 19.7267 9.43191 20.8053 10.8909 21.4972C12.3499 22.1892 13.9788 22.4664 15.5915 22.2971C17.2043 22.1279 18.7357 21.5191 20.0108 20.5403C18.9887 19.7478 18.1643 18.739 17.5998 17.5902C17.0354 16.4413 16.7456 15.1823 16.7522 13.9081Z" fill="#EA1D25"/>
<path d="M33.4063 19.1339H33.3495V18.8071H33.4308L33.5358 19.0379L33.6342 18.8071H33.7155V19.1329H33.6607V18.8865L33.5661 19.1016H33.5037L33.4063 18.8865V19.1339ZM33.1614 19.1339H33.1131V18.8625H32.9988V18.8071H33.2824V18.8625H33.1614V19.1339Z" fill="#F69E1E"/>
<path d="M33.9921 13.9076C33.9911 15.4899 33.5343 17.0401 32.6739 18.3811C31.8136 19.7222 30.5843 20.8001 29.1264 21.4917C27.6685 22.1833 26.0408 22.4608 24.429 22.2925C22.8173 22.1242 21.2866 21.5169 20.0115 20.5399C21.8114 19.1566 22.9753 17.1323 23.2473 14.9118C23.5192 12.6914 22.8772 10.4563 21.462 8.69774C21.0395 8.16754 20.5524 7.68956 20.0115 7.27436C21.2866 6.29731 22.8175 5.68999 24.4293 5.52172C26.0411 5.35346 27.6689 5.63104 29.1269 6.32277C30.5848 7.01449 31.8141 8.0925 32.6744 9.43368C33.5346 10.7749 33.9912 12.3251 33.9921 13.9076Z" fill="#F69E1E"/>
</g>
<defs>
<clipPath id="clip0_506_82868">
<rect width="40.9231" height="28" fill="white" transform="translate(0.115723)"/>
</clipPath>
</defs>
</svg>
