<svg width="27" height="26" viewBox="0 0 27 26" fill="none" xmlns="http://www.w3.org/2000/svg">
<g clip-path="url(#clip0_506_82876)">
<path d="M0.115723 13C0.115723 16.4478 1.48536 19.7544 3.92333 22.1924C6.3613 24.6304 9.66791 26 13.1157 26C16.5635 26 19.8701 24.6304 22.3081 22.1924C24.7461 19.7544 26.1157 16.4478 26.1157 13C26.1157 9.55219 24.7461 6.24558 22.3081 3.80761C19.8701 1.36964 16.5635 0 13.1157 0C9.66791 0 6.3613 1.36964 3.92333 3.80761C1.48536 6.24558 0.115723 9.55219 0.115723 13Z" fill="#D80917"/>
<path d="M12.0781 21.0227C12.0537 21.0227 12.0284 21.0213 12.004 21.0175C11.9055 21.004 11.8127 20.9636 11.7356 20.9009C11.6586 20.8381 11.6002 20.7553 11.5671 20.6616L6.28518 5.69986C6.21807 5.50929 6.26252 5.29723 6.40051 5.14965C6.5385 5.00208 6.74795 4.94281 6.94171 4.99772L17.5825 7.9652C17.6514 7.98438 17.717 8.01749 17.7731 8.06252L19.7738 9.65157C19.9992 9.83023 20.0457 10.1541 19.8795 10.3883L12.5202 20.7935C12.4703 20.8643 12.404 20.9221 12.3271 20.962C12.2501 21.0019 12.1647 21.0227 12.0781 21.0227ZM7.65374 6.32096L12.2399 19.3137L18.6986 10.1814L17.1857 8.97964L7.65374 6.32096Z" fill="white"/>
<path d="M12.0793 21.0226C12.0593 21.0226 12.0401 21.0214 12.02 21.0194C11.7229 20.9871 11.5079 20.7199 11.5398 20.4227L12.3364 13.0471C12.3681 12.7487 12.6443 12.5393 12.9331 12.5669C13.2303 12.5991 13.4453 12.8664 13.4133 13.1636L12.6167 20.5392C12.5871 20.8166 12.3524 21.0226 12.0793 21.0226Z" fill="white"/>
<path d="M12.8741 13.6472C12.7367 13.6472 12.599 13.5955 12.4933 13.4912C12.2807 13.2806 12.2786 12.9378 12.4889 12.7249L17.051 8.10615C17.2616 7.8935 17.6044 7.89147 17.8171 8.1015C18.0297 8.31212 18.0317 8.65491 17.8214 8.86785L13.2591 13.4863C13.2088 13.5373 13.1489 13.5778 13.0828 13.6054C13.0167 13.633 12.9458 13.6472 12.8741 13.6472Z" fill="white"/>
<path d="M12.8741 13.6462C12.6698 13.6462 12.4741 13.5298 12.3823 13.3316C12.2574 13.0603 12.3758 12.7381 12.6466 12.6126L19.2091 9.58327C19.4821 9.45778 19.8025 9.5763 19.9283 9.84821C20.0533 10.1195 19.9347 10.4417 19.664 10.5672L13.1015 13.5966C13.0301 13.6292 12.9526 13.6462 12.8741 13.6462Z" fill="white"/>
<path d="M12.9528 13.7411C12.7942 13.7411 12.6376 13.6717 12.5307 13.538L6.37353 5.85801C6.18616 5.62474 6.22392 5.28398 6.45778 5.09689C6.69047 4.91068 7.03268 4.94816 7.21889 5.18114L13.3749 12.8612C13.5623 13.0944 13.5251 13.4352 13.2913 13.6223C13.1953 13.6993 13.0759 13.7413 12.9528 13.7411Z" fill="white"/>
</g>
<defs>
<clipPath id="clip0_506_82876">
<rect width="26" height="26" fill="white" transform="translate(0.115723)"/>
</clipPath>
</defs>
</svg>
