<svg width="41" height="28" viewBox="0 0 41 28" fill="none" xmlns="http://www.w3.org/2000/svg">
<g clip-path="url(#clip0_506_82864)">
<path d="M36.0514 0.560059H4.50017C2.38802 0.560059 0.675781 2.27212 0.675781 4.38406V23.504C0.675781 25.616 2.38802 27.3281 4.50017 27.3281H36.0514C38.1635 27.3281 39.8758 25.616 39.8758 23.504V4.38406C39.8758 2.27212 38.1635 0.560059 36.0514 0.560059Z" fill="white" stroke="black" stroke-opacity="0.1"/>
<path d="M12.0723 9.83013C11.7514 10.2131 11.2426 10.5164 10.7334 10.4716C10.6672 9.95389 10.9218 9.40296 11.2094 9.06551C11.5301 8.67116 12.0835 8.39009 12.5371 8.36719C12.5924 8.90748 12.3822 9.4364 12.0723 9.83013ZM12.5313 10.5727C12.8184 10.5951 13.6458 10.6849 14.1756 11.4812C14.1313 11.5149 13.1934 12.0646 13.2043 13.2204C13.2153 14.6004 14.3959 15.0605 14.407 15.0718C14.3959 15.1055 14.2199 15.7227 13.7893 16.3621C13.4142 16.9231 13.0277 17.4728 12.4099 17.484C11.8139 17.4952 11.6152 17.125 10.9313 17.125C10.2471 17.125 10.0266 17.4728 9.46357 17.4952C8.86779 17.5175 8.41559 16.9004 8.04033 16.3394C7.26747 15.2063 6.68283 13.1419 7.47731 11.7505C7.86376 11.0549 8.56987 10.6174 9.33102 10.6061C9.91599 10.5951 10.4568 10.9991 10.81 10.9991C11.1632 10.9991 11.7916 10.5278 12.5313 10.5727ZM19.9034 9.00895C21.5105 9.00895 22.6298 10.1347 22.6298 11.7737C22.6298 13.4185 21.4876 14.5501 19.8632 14.5501H18.084V17.426H16.7983V9.00895H19.9034ZM18.084 13.4535H19.559C20.6785 13.4535 21.3154 12.8411 21.3154 11.7795C21.3154 10.7182 20.6783 10.1113 19.5647 10.1113H18.084V13.4535ZM22.9488 15.6817C22.9488 14.6027 23.7581 13.9843 25.2503 13.891L26.8516 13.7919V13.3252C26.8516 12.6429 26.4098 12.2696 25.6235 12.2696C24.9746 12.2696 24.5039 12.6078 24.4068 13.1267H23.2471C23.2817 12.0363 24.2917 11.243 25.6579 11.243C27.1273 11.243 28.0858 12.0245 28.0858 13.2378V17.4257H26.8978V16.4167H26.869C26.5304 17.0756 25.784 17.4897 24.9747 17.4897C23.7809 17.4897 22.9488 16.7667 22.9488 15.6817ZM26.8517 15.1394V14.6668L25.4225 14.7602C24.6187 14.8126 24.2001 15.1159 24.2001 15.6465C24.2001 16.1599 24.6362 16.4925 25.3192 16.4925C26.1914 16.4925 26.8517 15.9266 26.8517 15.1394ZM29.1781 19.677V18.6681C29.2586 18.6796 29.4534 18.6912 29.5569 18.6912C30.125 18.6912 30.4465 18.4467 30.6417 17.8163L30.7565 17.4432L28.581 11.3188H29.9241L31.4395 16.2883H31.4682L32.9834 11.3188H34.2922L32.0364 17.7522C31.5197 19.2281 30.9285 19.7123 29.6774 19.7123C29.5797 19.7123 29.264 19.7006 29.1781 19.677Z" fill="black"/>
</g>
<defs>
<clipPath id="clip0_506_82864">
<rect width="40.32" height="28" fill="white" transform="translate(0.115723)"/>
</clipPath>
</defs>
</svg>
