<svg width="41" height="28" viewBox="0 0 41 28" fill="none" xmlns="http://www.w3.org/2000/svg">
<g clip-path="url(#clip0_506_82896)">
<path d="M36.0514 0.560059H4.50017C2.38802 0.560059 0.675781 2.27212 0.675781 4.38406V23.504C0.675781 25.616 2.38802 27.3281 4.50017 27.3281H36.0514C38.1635 27.3281 39.8758 25.616 39.8758 23.504V4.38406C39.8758 2.27212 38.1635 0.560059 36.0514 0.560059Z" fill="white" stroke="black" stroke-opacity="0.1"/>
<path d="M21.9927 9.12388C20.9729 9.03927 19.9487 9.10529 18.9268 9.09068C18.8865 9.09023 18.8441 9.08978 18.8342 9.11856V17.5859H19.8484V14.1452C19.9608 14.1452 20.0413 14.147 20.1213 14.1448C20.7502 14.1284 21.3794 14.1722 22.0083 14.1173C23.0748 14.0238 24.2758 13.0143 24.2291 11.5267C24.1872 10.2154 23.0683 9.21337 21.9927 9.12388ZM21.9542 13.1037C21.8452 13.1232 21.7375 13.133 21.6277 13.133C21.0456 13.1325 20.4638 13.1325 19.8588 13.1325V10.1512C19.9141 10.0914 19.9812 10.106 20.0426 10.1069C20.6139 10.1122 21.1852 10.114 21.7565 10.1273C22.4611 10.1437 23.1102 10.7705 23.1583 11.4705C23.2136 12.2776 22.702 12.9691 21.9542 13.1037ZM28.2746 12.0135C27.708 11.645 27.0753 11.5723 26.4266 11.6135C25.9184 11.6458 25.4397 11.7938 25.0218 12.1088C24.7987 12.2771 24.6036 12.4729 24.4475 12.7237C24.7572 12.9221 25.0534 13.1117 25.3479 13.3C26.0097 12.3998 26.9931 12.4269 27.5324 12.7316C28.0748 13.0377 28.3654 13.6088 28.2487 14.1638C28.2301 14.1647 28.224 14.167 28.2193 14.1652C28.1977 14.1576 28.176 14.1506 28.1548 14.1413C27.2967 13.7589 26.4144 13.7253 25.5374 14.0279C24.2101 14.4854 23.9856 15.8202 24.4648 16.7168C25.114 17.9315 27.1345 18.2487 28.0657 16.9649C28.1107 16.9028 28.1423 16.82 28.2582 16.7926V17.5775H29.2382C29.2438 17.5377 29.2494 17.5146 29.2494 17.4912C29.2482 16.2366 29.2689 14.9811 29.2356 13.727C29.2157 13.0032 28.887 12.4123 28.2746 12.0135ZM26.9447 16.7908C26.4984 16.9037 26.0745 16.8648 25.6939 16.5759C25.2359 16.2282 25.181 15.6044 25.572 15.1792C25.793 14.9382 26.0719 14.8044 26.3847 14.7411C26.9075 14.6347 27.4161 14.6852 27.9096 14.8908C28.0324 14.9422 28.1479 15.0086 28.2512 15.1096C28.288 15.8366 27.6899 16.6025 26.9447 16.7908ZM33.9939 11.8169C33.442 13.2127 32.8931 14.6015 32.3443 15.9903L32.2894 15.9823C31.7276 14.5935 31.1658 13.2043 30.6031 11.8133H29.4774C30.2649 13.6442 31.0404 15.4481 31.8172 17.2537C31.3777 18.2283 30.9422 19.194 30.4994 20.1771H31.5654C32.7496 17.3893 33.9324 14.6037 35.1283 11.7885C34.7239 11.7947 34.3624 11.7788 33.9939 11.8169Z" fill="#5E6369"/>
<path d="M8.09752 13.2688C8.09752 12.9512 8.14249 12.6437 8.22766 12.3549L6.62617 11.0601C6.30311 11.7174 6.12061 12.4608 6.12061 13.2511C6.12061 14.0388 6.30182 14.7909 6.62315 15.4603L8.22553 14.1707C8.14204 13.8864 8.09752 13.5834 8.09752 13.2688Z" fill="#FFB900"/>
<path d="M10.9757 10.3203C11.6694 10.3363 12.2826 10.6113 12.7429 11.0592L14.0632 9.64915C13.2648 8.85132 12.1776 8.3667 10.9234 8.3667C9.04204 8.3667 7.41328 9.45691 6.62524 11.0601L8.22679 12.355C8.57752 11.1633 9.60814 10.2884 10.9757 10.3203Z" fill="#FE2727"/>
<path d="M10.9756 16.2168C9.60462 16.2168 8.5727 15.3574 8.22494 14.1702L6.62256 15.4597C7.41014 17.0997 9.04064 18.24 10.9237 18.1709C12.2493 18.1221 13.3167 17.7009 14.0848 16.9778L12.5352 15.7738C12.1096 16.0719 11.5781 16.2168 10.9756 16.2168Z" fill="#00AC47"/>
<path d="M10.873 12.3801V14.2628H13.4939C13.327 14.9535 12.9931 15.4527 12.5364 15.7734L14.086 16.9775C14.996 16.1208 15.486 14.8396 15.486 13.2506C15.486 12.9534 15.463 12.6623 15.419 12.3801" fill="#2485FC"/>
</g>
<defs>
<clipPath id="clip0_506_82896">
<rect width="40.32" height="28" fill="white" transform="translate(0.115723)"/>
</clipPath>
</defs>
</svg>
