<svg width="42" height="28" viewBox="0 0 42 28" fill="none" xmlns="http://www.w3.org/2000/svg">
<g clip-path="url(#clip0_506_82861)">
<path d="M35.7506 1.0769H4.54604C2.4571 1.0769 0.763672 2.73 0.763672 4.76921V23.2307C0.763672 25.27 2.4571 26.9231 4.54604 26.9231H35.7506C37.8395 26.9231 39.5329 25.27 39.5329 23.2307V4.76921C39.5329 2.73 37.8395 1.0769 35.7506 1.0769Z" fill="white" stroke="black" stroke-opacity="0.1"/>
<path d="M29.1939 17.1809V8.69738C29.1939 6.86859 27.7098 5.38452 25.8799 5.38452H15.2747C13.446 5.38452 11.9619 6.86859 11.9619 8.69738V19.3026C11.9619 21.1312 13.4449 22.6153 15.2747 22.6153H25.8799C27.5093 22.6153 28.8654 21.437 29.1421 19.8873C28.2633 19.5071 24.455 17.8625 22.4712 16.9158C20.9613 18.7447 19.3802 19.8421 16.9967 19.8421C14.6134 19.8421 13.0227 18.3742 13.2133 16.5776C13.3393 15.3984 14.1482 13.4706 17.6612 13.8012C19.5127 13.9746 20.3602 14.3204 21.8703 14.8189C22.2611 14.103 22.5852 13.3143 22.8318 12.4754H16.1364V11.812H19.4491V10.6208H15.4083V9.89066H19.4491V8.17181C19.4491 8.17181 19.4857 7.90251 19.7831 7.90251H21.4395V9.89066H25.7473V10.6208H21.4395V11.812H24.9538C24.6306 13.1271 24.1406 14.3354 23.5267 15.3909C24.5477 15.7602 29.1939 17.1809 29.1939 17.1809ZM16.733 18.7047C14.2151 18.7047 13.8166 17.1152 13.95 16.4506C14.0825 15.7893 14.8117 14.9267 16.2118 14.9267C17.8208 14.9267 19.2618 15.3381 20.9914 16.1801C19.7766 17.7625 18.2839 18.7047 16.733 18.7047Z" fill="#1284FF"/>
</g>
<defs>
<clipPath id="clip0_506_82861">
<rect width="40.9231" height="28" fill="white" transform="translate(0.115723)"/>
</clipPath>
</defs>
</svg>
