<svg width="97" height="25" viewBox="0 0 97 25" fill="none" xmlns="http://www.w3.org/2000/svg">
<path d="M10.83 7.3C10.83 7.85467 10.7087 8.34 10.466 8.756C10.2233 9.15467 9.894 9.47533 9.478 9.718C9.062 9.94333 8.594 10.056 8.074 10.056C7.554 10.056 7.07733 9.94333 6.644 9.718C6.228 9.47533 5.89867 9.15467 5.656 8.756C5.41333 8.34 5.292 7.85467 5.292 7.3C5.292 6.74533 5.41333 6.26867 5.656 5.87C5.89867 5.47133 6.228 5.15933 6.644 4.934C7.07733 4.70867 7.554 4.596 8.074 4.596C8.594 4.596 9.062 4.70867 9.478 4.934C9.894 5.15933 10.2233 5.47133 10.466 5.87C10.7087 6.26867 10.83 6.74533 10.83 7.3ZM8.438 18.896L13.43 12.76C14.0887 11.9453 14.652 11.096 15.12 10.212C15.588 9.328 15.822 8.35733 15.822 7.3C15.822 5.74 15.4667 4.44867 14.756 3.426C14.0627 2.386 13.1267 1.61467 11.948 1.112C10.7693 0.591999 9.478 0.331999 8.074 0.331999C6.65267 0.331999 5.35267 0.591999 4.174 1.112C3.01267 1.61467 2.07667 2.386 1.366 3.426C0.655333 4.44867 0.3 5.74 0.3 7.3C0.3 8.25333 0.464667 9.094 0.794 9.822C1.14067 10.55 1.59133 11.174 2.146 11.694C2.718 12.1967 3.33333 12.578 3.992 12.838C4.668 13.098 5.33533 13.228 5.994 13.228C6.67 13.228 7.22467 13.15 7.658 12.994C8.10867 12.838 8.594 12.526 9.114 12.058L7.996 12.604L2.042 18.896H8.438ZM18.9489 19V0.799999H27.2689C28.9329 0.799999 30.3629 1.06867 31.5589 1.606C32.7722 2.14333 33.7082 2.92333 34.3669 3.946C35.0256 4.95133 35.3549 6.14733 35.3549 7.534C35.3549 8.90333 35.0256 10.0907 34.3669 11.096C33.7082 12.1013 32.7722 12.8813 31.5589 13.436C30.3629 13.9733 28.9329 14.242 27.2689 14.242H21.8089L24.0969 12.006V19H18.9489ZM24.0969 12.552L21.8089 10.186H26.9569C28.0316 10.186 28.8289 9.952 29.3489 9.484C29.8862 9.016 30.1549 8.366 30.1549 7.534C30.1549 6.68467 29.8862 6.026 29.3489 5.558C28.8289 5.09 28.0316 4.856 26.9569 4.856H21.8089L24.0969 2.49V12.552ZM37.7579 19V4.908H42.4639V9.016L41.7619 7.846C42.1779 6.78867 42.8539 6 43.7899 5.48C44.7259 4.94267 45.8612 4.674 47.1959 4.674V9.12C46.9705 9.08533 46.7712 9.068 46.5979 9.068C46.4419 9.05067 46.2685 9.042 46.0779 9.042C45.0725 9.042 44.2579 9.31933 43.6339 9.874C43.0099 10.4113 42.6979 11.2953 42.6979 12.526V19H37.7579ZM56.1795 19.234C54.6368 19.234 53.2675 18.922 52.0715 18.298C50.8755 17.674 49.9308 16.816 49.2375 15.724C48.5615 14.6147 48.2235 13.3493 48.2235 11.928C48.2235 10.5067 48.5615 9.25 49.2375 8.158C49.9308 7.066 50.8755 6.21667 52.0715 5.61C53.2675 4.986 54.6368 4.674 56.1795 4.674C57.7222 4.674 59.0915 4.986 60.2875 5.61C61.5008 6.21667 62.4455 7.066 63.1215 8.158C63.7975 9.25 64.1355 10.5067 64.1355 11.928C64.1355 13.3493 63.7975 14.6147 63.1215 15.724C62.4455 16.816 61.5008 17.674 60.2875 18.298C59.0915 18.922 57.7222 19.234 56.1795 19.234ZM56.1795 15.308C56.7515 15.308 57.2542 15.178 57.6875 14.918C58.1382 14.658 58.4935 14.2767 58.7535 13.774C59.0135 13.254 59.1435 12.6387 59.1435 11.928C59.1435 11.2173 59.0135 10.6193 58.7535 10.134C58.4935 9.63133 58.1382 9.25 57.6875 8.99C57.2542 8.73 56.7515 8.6 56.1795 8.6C55.6248 8.6 55.1222 8.73 54.6715 8.99C54.2382 9.25 53.8828 9.63133 53.6055 10.134C53.3455 10.6193 53.2155 11.2173 53.2155 11.928C53.2155 12.6387 53.3455 13.254 53.6055 13.774C53.8828 14.2767 54.2382 14.658 54.6715 14.918C55.1222 15.178 55.6248 15.308 56.1795 15.308ZM64.3796 19L70.8536 10.498L70.7496 13.306L64.5356 4.908H70.0996L73.5836 9.874L71.5036 9.978L75.1956 4.908H80.4216L74.2076 13.124V10.42L80.6036 19H74.9616L71.3216 13.696L73.4016 13.982L69.7356 19H64.3796ZM83.7462 24.278C83.0009 24.278 82.2469 24.1567 81.4842 23.914C80.7389 23.6887 80.1322 23.3853 79.6642 23.004L81.3802 19.546C81.6749 19.806 82.0129 20.0053 82.3942 20.144C82.7929 20.3 83.1829 20.378 83.5642 20.378C84.1015 20.378 84.5262 20.2567 84.8382 20.014C85.1502 19.7713 85.4189 19.39 85.6442 18.87L86.2942 17.232L86.6842 16.738L91.4682 4.908H96.1742L90.0902 19.572C89.6049 20.7853 89.0415 21.73 88.4002 22.406C87.7762 23.0993 87.0742 23.5847 86.2942 23.862C85.5315 24.1393 84.6822 24.278 83.7462 24.278ZM85.6702 19.598L79.4562 4.908H84.5262L89.1022 16.296L85.6702 19.598Z" fill="#112446"/>
</svg>
