<svg width="20" height="20" viewBox="0 0 20 20" fill="none" xmlns="http://www.w3.org/2000/svg">
<path d="M18.7506 5.5375C18.7278 4.72396 18.3885 3.9514 17.8049 3.38414C17.2213 2.81688 16.4394 2.49968 15.6256 2.5H4.37557C3.5617 2.49968 2.77983 2.81688 2.19623 3.38414C1.61263 3.9514 1.27335 4.72396 1.25057 5.5375C1.24721 5.56657 1.24721 5.59593 1.25057 5.625V14.375C1.25057 15.2038 1.57981 15.9987 2.16586 16.5847C2.75191 17.1708 3.54676 17.5 4.37557 17.5H15.6256C16.4544 17.5 17.2492 17.1708 17.8353 16.5847C18.4213 15.9987 18.7506 15.2038 18.7506 14.375V5.625C18.7539 5.59593 18.7539 5.56657 18.7506 5.5375ZM4.37557 3.75H15.6256C16.0732 3.74375 16.5082 3.89783 16.8521 4.1844C17.196 4.47097 17.426 4.87112 17.5006 5.3125L11.0381 9.6C10.7306 9.80425 10.3697 9.9132 10.0006 9.9132C9.63144 9.9132 9.27053 9.80425 8.96307 9.6L2.53182 5.3125C2.60552 4.87645 2.83098 4.48048 3.16836 4.19456C3.50574 3.90865 3.93333 3.75119 4.37557 3.75ZM17.5006 14.375C17.5006 14.8723 17.303 15.3492 16.9514 15.7008C16.5998 16.0525 16.1228 16.25 15.6256 16.25H4.37557C3.87828 16.25 3.40137 16.0525 3.04974 15.7008C2.69811 15.3492 2.50057 14.8723 2.50057 14.375V6.7875L8.26931 10.625C8.78219 10.9663 9.38451 11.1484 10.0006 11.1484C10.6166 11.1484 11.2189 10.9663 11.7318 10.625L17.5006 6.7875V14.375Z" fill="white"/>
</svg>
