<svg width="22" height="22" viewBox="0 0 22 22" fill="none" xmlns="http://www.w3.org/2000/svg">
<path d="M19.7777 5.54398C19.1177 5.82998 18.4357 6.02798 17.7097 6.11598C18.4577 5.67598 19.0297 4.97198 19.2937 4.11398C18.5897 4.53198 17.8197 4.81798 17.0057 4.99398C16.3457 4.28998 15.3997 3.84998 14.3657 3.84998C12.3637 3.84998 10.7577 5.47798 10.7577 7.45798C10.7577 7.74398 10.7797 8.00798 10.8457 8.27198C7.85373 8.13998 5.21373 6.68798 3.43173 4.50998C2.15573 6.79798 3.58573 8.68998 4.53173 9.32798C3.95973 9.32798 3.38773 9.15198 2.90373 8.88798C2.90373 10.67 4.15773 12.144 5.78573 12.474C5.43373 12.584 4.64173 12.65 4.15773 12.54C4.61973 13.97 5.96173 15.026 7.52373 15.048C6.29173 16.016 4.48773 16.786 2.17773 16.544C3.78373 17.578 5.67573 18.172 7.72173 18.172C14.3657 18.172 17.9737 12.672 17.9737 7.91998C17.9737 7.76598 17.9737 7.61198 17.9517 7.45798C18.6997 6.90798 19.3157 6.26998 19.7777 5.54398Z" fill="#7D7E83"/>
</svg>
