<svg width="18" height="18" viewBox="0 0 18 18" fill="none" xmlns="http://www.w3.org/2000/svg">
<path d="M8.08225 0C3.63145 0 0.00585938 3.62558 0.00585938 8.07641C0.00585938 12.5272 3.63145 16.1599 8.08225 16.1599C9.98333 16.1599 11.7317 15.4936 13.1136 14.3875L16.4777 17.7498C16.6475 17.9126 16.8742 18.0024 17.1094 18C17.3445 17.9975 17.5694 17.9032 17.7358 17.737C17.9022 17.5708 17.9969 17.3461 17.9997 17.111C18.0024 16.8758 17.9129 16.6489 17.7504 16.4789L14.3863 13.1148C15.4934 11.7308 16.1604 9.97968 16.1604 8.07641C16.1604 3.62558 12.5331 0 8.08225 0ZM8.08225 1.79517C11.5629 1.79517 14.3635 4.59577 14.3635 8.07641C14.3635 11.557 11.5629 14.3647 8.08225 14.3647C4.60161 14.3647 1.801 11.557 1.801 8.07641C1.801 4.59577 4.60161 1.79517 8.08225 1.79517Z" fill="#112446"/>
</svg>
