<svg width="42" height="28" viewBox="0 0 42 28" fill="none" xmlns="http://www.w3.org/2000/svg">
<g clip-path="url(#clip0_506_82884)">
<path d="M36.1795 1.0769H4.975C2.88605 1.0769 1.19263 2.73 1.19263 4.76921V23.2307C1.19263 25.27 2.88605 26.9231 4.975 26.9231H36.1795C38.2684 26.9231 39.9619 25.27 39.9619 23.2307V4.76921C39.9619 2.73 38.2684 1.0769 36.1795 1.0769Z" fill="white" stroke="black" stroke-opacity="0.1"/>
<path d="M13.43 6.18515C12.7078 6.27399 11.9856 6.85784 11.7492 7.52937C11.592 7.94707 8.77056 19.8132 8.75873 20.0279C8.73155 20.6498 9.09915 21.1055 9.70197 21.2198C9.92654 21.2705 17.0905 21.2705 17.3269 21.2198C18.0089 21.0928 18.6532 20.5736 18.8884 19.939C18.9805 19.699 21.8942 7.60438 21.8942 7.40246C21.9331 6.83245 21.5786 6.36284 21.0147 6.19783C20.8836 6.17245 13.7314 6.14707 13.43 6.1863V6.18515Z" fill="#E60012"/>
<path d="M20.1098 6.18515C19.3887 6.27399 18.6665 6.85784 18.4302 7.52937C18.286 7.94707 15.4516 19.8132 15.4516 20.0279C15.4244 20.6498 15.792 21.1055 16.396 21.2198C16.6194 21.2705 23.7834 21.2705 24.0198 21.2198C24.703 21.0928 25.3461 20.5736 25.5824 19.939C25.6734 19.699 28.5871 7.60438 28.5871 7.40246C28.6272 6.83245 28.2726 6.36284 27.7076 6.19783C27.5634 6.17245 20.4112 6.14707 20.1098 6.1863V6.18515Z" fill="#00508E"/>
<path d="M27.0782 6.18484C26.3571 6.27369 25.6361 6.85754 25.3997 7.52908C25.2544 7.94677 22.42 19.8129 22.42 20.0276C22.3939 20.6495 22.7616 21.1052 23.3655 21.2195C23.5878 21.2702 28.9162 21.2702 29.1526 21.2195C29.8346 21.0925 30.4775 20.5734 30.7128 19.9387C30.8062 19.6987 33.7185 7.60408 33.7185 7.40216C33.7588 6.83215 33.4042 6.36254 32.8392 6.19754C32.7091 6.15946 26.7248 6.13408 26.4222 6.17216H27.0782V6.18484Z" fill="#00908C"/>
<path d="M13.2073 10.0379C13.2001 10.0941 13.1869 10.1494 13.1683 10.2029C12.8657 11.1917 12.5642 12.5222 12.6032 12.6872C12.7084 13.1822 13.4567 13.1441 13.719 12.6237C13.7982 12.4852 14.3621 10.1649 14.3621 9.99987C14.3621 9.98833 15.2544 9.99987 15.2544 10.0126C15.2544 10.0126 15.2544 10.0506 15.2415 10.0887C15.13 10.4887 15.0248 10.8902 14.9258 11.2933C14.5713 12.6364 14.5322 12.776 14.349 13.0425C13.7463 13.9045 11.725 13.8791 11.5667 13.0045C11.5276 12.8141 11.9602 10.6218 12.1576 10.0252C12.1576 9.98718 13.2073 10.0137 13.2073 10.0379ZM26.6193 10.0379C27.222 10.1649 27.4065 10.6333 27.131 11.3302C26.8557 12.0283 26.2646 12.333 25.2281 12.333C24.9125 12.333 24.9397 12.2821 24.7435 13.2329C24.7032 13.4094 24.6642 13.5744 24.6642 13.5998C24.6501 13.6633 23.7187 13.6633 23.7317 13.5998C24.5188 10.3426 24.5851 10.0633 24.5851 10.0379L24.5981 9.99987H25.5436C26.2907 10.0126 26.501 10.0126 26.6193 10.0379ZM18.5226 11.2933C18.6526 11.3187 18.7448 11.4203 18.7448 11.5091C18.7448 11.8253 18.0758 12.041 17.8264 11.7999C17.59 11.5588 18.0889 11.1917 18.5226 11.2922V11.2933ZM16.1989 11.5333C16.1989 11.5588 16.187 11.6095 16.187 11.6487L16.1728 11.6983L16.33 11.6222C16.7509 11.4203 17.1574 11.4583 17.2875 11.711C17.3667 11.8633 17.3536 11.9533 17.1444 12.8903C17.1042 13.0552 17.0522 13.2826 17.0381 13.3979C16.9861 13.6518 17.0263 13.638 16.5535 13.638C16.1468 13.638 16.1468 13.638 16.1599 13.5998C16.1599 13.5744 16.2119 13.3725 16.2651 13.1314C16.4742 12.2314 16.4884 12.1044 16.3041 12.1044C16.1989 12.1044 16.0558 12.168 16.0416 12.206C15.9422 12.6352 15.8505 13.066 15.7663 13.4983L15.7402 13.6137L15.3325 13.638C14.8348 13.6507 14.8738 13.6887 14.9778 13.2572C15.1232 12.6999 15.2025 12.3075 15.2544 11.9533C15.3194 11.5725 15.2805 11.6095 15.648 11.5588C15.8183 11.5333 15.9896 11.5091 16.0416 11.4964C16.1729 11.4583 16.1989 11.471 16.1989 11.5333ZM22.4326 11.5218C22.4326 11.546 22.4197 11.5968 22.4197 11.6349L22.4067 11.6983L22.5639 11.6222C23.3771 11.2172 23.6926 11.546 23.4562 12.5856C23.4042 12.8141 23.3381 13.1441 23.299 13.2964C23.2859 13.4045 23.2593 13.5107 23.2199 13.6126C23.1678 13.6633 22.3925 13.6507 22.4067 13.6126C22.4067 13.5871 22.4587 13.3852 22.5119 13.1568C22.7341 12.2314 22.7341 12.1171 22.5378 12.1171C22.3806 12.1171 22.3015 12.168 22.2755 12.2821C22.2364 12.4206 22.039 13.3345 22.0131 13.4983L21.9871 13.638L21.5793 13.6507C21.0816 13.6633 21.1206 13.7141 21.2389 13.2456C21.3688 12.738 21.4622 12.2695 21.5273 11.9267C21.5793 11.5968 21.5403 11.6349 21.8689 11.5841C22.0131 11.5588 22.1962 11.5333 22.2625 11.5218C22.3925 11.4583 22.4326 11.471 22.4326 11.5218ZM30.3993 11.5091C30.4513 12.2821 30.4643 12.5095 30.4643 12.5222C30.4643 12.5349 30.5825 12.333 30.7124 12.0791C30.9761 11.5714 30.9241 11.6222 31.2125 11.5841C31.2905 11.5725 31.4488 11.546 31.5671 11.5218C31.8555 11.471 31.8555 11.4457 31.5269 12.003C31.0813 12.7506 30.4643 13.803 30.2409 14.1838C29.5719 15.3618 29.5719 15.3618 29.0081 15.3745L28.6653 15.3872L28.6925 15.2984C28.7055 15.2487 28.7457 15.1472 28.7587 15.071L28.7977 14.9314H28.9029C29.021 14.9314 29.0471 14.906 29.1511 14.7284C29.1913 14.6648 29.2575 14.5634 29.2835 14.4998C29.3225 14.4364 29.4536 14.2345 29.5588 14.0314L29.7693 13.676L29.7161 13.2075C29.6658 12.7455 29.6046 12.2846 29.5329 11.8253C29.5056 11.6476 29.5056 11.6476 29.742 11.6222C29.8484 11.6107 30.0175 11.5714 30.1097 11.5588C30.3591 11.4837 30.3851 11.4837 30.3981 11.5091H30.3993ZM20.5036 11.5206C21.5142 11.6983 21.1597 13.3967 20.058 13.638C19.3099 13.803 18.798 13.5237 18.798 12.9664C18.8099 11.9903 19.5593 11.3568 20.5036 11.5218V11.5206ZM28.0625 11.5714C28.1242 11.6024 28.1814 11.6411 28.2327 11.6868C28.2988 11.749 28.2988 11.749 28.2988 11.711C28.3119 11.6602 28.2988 11.6602 28.8236 11.5841C29.2433 11.5218 29.2303 11.5218 29.2043 11.6349C29.0722 12.1791 28.9453 12.7245 28.8236 13.2711C28.7314 13.7268 28.7977 13.676 28.2859 13.6633H27.852V13.6126C27.852 13.5618 27.8261 13.5364 27.8001 13.5744C27.6559 13.803 26.9467 13.7141 26.7504 13.436C26.2658 12.7253 27.3013 11.2299 28.0625 11.5714ZM18.6397 11.9406C18.6397 11.9406 18.6397 12.003 18.6279 12.0537C18.5215 12.4598 18.3383 13.2837 18.2993 13.4349L18.259 13.6253L17.8264 13.638C17.3147 13.6507 17.3418 13.676 17.4458 13.3725C17.538 13.0807 17.629 12.7264 17.6822 12.3457C17.7342 12.0156 17.6822 12.0664 18.0628 12.0156C18.2331 11.9903 18.4174 11.9649 18.4564 11.9522C18.5616 11.9267 18.6267 11.9267 18.6397 11.9406ZM20.9362 14.5634C20.9206 14.6083 20.8988 14.651 20.8713 14.6902C20.8452 14.7537 20.8051 14.8045 20.8051 14.8045C21.5793 14.816 21.6064 14.816 21.5923 14.8552L21.4481 15.311H20.3205L20.2542 15.3618C20.11 15.4887 19.3489 15.6538 19.3489 15.5522L19.4931 15.0964H19.5983C19.7815 15.0964 19.8216 15.0583 19.9789 14.7918L20.1088 14.5507C20.792 14.5391 20.9362 14.5507 20.9362 14.5634ZM22.6561 14.5634C22.6479 14.6153 22.6344 14.6663 22.6159 14.7156C22.597 14.76 22.5838 14.8065 22.5768 14.8541C22.5768 14.8541 22.6431 14.8299 22.721 14.7664C23.0106 14.576 23.26 14.538 23.9941 14.538C24.2836 14.538 24.5319 14.538 24.5461 14.5507C24.5578 14.576 24.1252 15.9456 24.0603 16.0726C23.9933 16.2131 23.8766 16.3254 23.7317 16.3888L23.6016 16.4395L22.8523 16.4522L22.1052 16.4649L21.9729 16.8964C21.7104 17.7203 21.7104 17.6568 22.091 17.6187C22.3936 17.5933 22.3806 17.568 22.2884 17.8725L22.2093 18.1264H21.8287C21.0013 18.1379 20.8973 18.0872 20.9764 17.7572C21.0155 17.5933 21.9599 14.576 21.9729 14.5507C21.9871 14.5391 22.6561 14.5391 22.6561 14.5634ZM26.1074 14.5634C26.1074 14.576 26.0945 14.6141 26.0815 14.6648C26.0413 14.7918 26.0413 14.7918 26.2114 14.7029C26.4361 14.5887 26.9609 14.5507 28.0365 14.5507H28.3781V14.7029C28.3781 14.8806 28.3898 14.8933 28.5483 14.9188L28.6665 14.9303L28.6003 15.1599L28.5352 15.3872H28.2988C27.6961 15.3998 27.6039 15.3364 27.5897 14.9949V14.8299L27.5507 14.9441L27.5117 15.071H27.3804C27.3143 15.071 27.2493 15.071 27.2493 15.0826L26.5141 17.441C26.501 17.4664 26.5141 17.4791 26.5932 17.4791C26.7115 17.4791 26.7115 17.4791 26.6713 17.5806C26.6323 17.6948 26.6323 17.6948 26.7635 17.6948C26.8372 17.6994 26.9107 17.6816 26.9739 17.6441C27.0649 17.5933 27.0649 17.606 27.4857 17.036L27.6559 16.7937H27.3013C26.8687 16.7937 26.9077 16.8203 26.9868 16.5664L27.0519 16.3633H27.9183C27.9974 16.098 28.0235 16.0217 28.0235 16.0091C28.0235 15.9964 27.8391 15.9964 27.6039 15.9964H27.183L27.3143 15.5395H28.4962C29.1393 15.5395 29.6771 15.5395 29.6771 15.5522C29.6771 15.5649 29.651 15.6675 29.6109 15.7806L29.5459 15.9964L29.1523 16.008L28.7587 16.0217C28.6925 16.2111 28.6665 16.2999 28.6523 16.3252L28.6404 16.376H29.021C29.4667 16.376 29.4407 16.3506 29.3485 16.6045L29.2835 16.8076H28.4171L28.2859 16.9598H28.6274L28.6794 17.2633C28.7314 17.606 28.7314 17.606 28.9029 17.606C29.0329 17.606 29.0329 17.5806 28.9419 17.8852L28.8627 18.1391H28.6145C28.1807 18.1391 28.1014 18.0745 28.0235 17.6441L27.9845 17.3649L27.8261 17.568C27.3935 18.1379 27.3675 18.1506 26.8155 18.1506C26.4609 18.1506 26.4609 18.1506 26.5141 18.049C26.5271 17.9995 26.5271 17.9995 26.4219 17.9995C26.3167 17.9995 26.3167 17.9995 26.2919 18.0745L26.2777 18.1506H25.5425L25.5555 18.1126C25.5957 17.9856 25.6619 17.9995 24.8604 17.9995C24.1655 17.9995 24.1252 17.9995 24.1394 17.9614L24.2045 17.733C24.2836 17.5044 24.2694 17.5044 24.3487 17.5044C24.4148 17.5044 24.4148 17.5044 24.4409 17.4156L25.2801 14.7041L25.3332 14.538H25.6997C25.9361 14.538 26.1074 14.5507 26.1074 14.5634ZM21.4481 15.6538L21.3039 16.098H20.5167C20.4834 16.2178 20.4439 16.3361 20.3984 16.4522C20.3855 16.4902 20.4115 16.4902 20.792 16.4902C21.0155 16.4902 21.1987 16.5029 21.1987 16.5029C21.1987 16.5156 21.1868 16.541 21.1726 16.579C21.1609 16.6045 21.1336 16.706 21.1077 16.8076L21.0545 16.9726H20.2413L20.149 17.276C20.019 17.7076 20.0309 17.7203 20.5297 17.6568C20.74 17.6314 20.7271 17.606 20.6348 17.9107L20.5557 18.1645H20.0048C19.1384 18.1645 19.1255 18.1379 19.3619 17.4156C19.428 17.1872 19.4931 16.998 19.4931 16.998C19.4931 16.998 19.4009 16.9853 19.2697 16.9853C19.1515 16.9853 19.0474 16.9853 19.0474 16.9726C19.1384 16.6553 19.1775 16.5537 19.1775 16.5283C19.1916 16.5029 19.2177 16.4902 19.4139 16.4902H19.6384L19.7425 16.098H19.532C19.3748 16.098 19.3228 16.098 19.3228 16.0726C19.3228 16.0472 19.441 15.6802 19.4529 15.641C19.48 15.6156 21.4622 15.6295 21.4481 15.6538ZM23.9941 16.5664C23.9941 16.5918 23.9681 16.6679 23.9551 16.7314C23.8759 17.0868 23.7719 17.1618 23.3522 17.1872L23.0757 17.2126C23.0497 17.2506 23.0497 17.5553 23.0757 17.606L23.1146 17.6568L23.3771 17.6441C23.5225 17.6314 23.6406 17.6314 23.6406 17.6314C23.6406 17.6568 23.4952 18.0999 23.4823 18.1126C23.4562 18.1379 22.6549 18.1253 22.5509 18.0872C22.3936 18.0364 22.3936 18.049 22.4067 17.2506L22.4197 16.5537H23.0887V16.8191H23.2199C23.3641 16.8191 23.3771 16.8076 23.4432 16.6299L23.4823 16.5283H23.7446C23.981 16.541 24.0071 16.541 23.9941 16.5664ZM25.2281 11.141L25.0839 11.749H25.2801C26.2907 11.7745 26.7103 10.646 25.7268 10.571L25.4113 10.5456C25.3723 10.5456 25.3723 10.5837 25.2281 11.141ZM20.0048 12.003C19.7567 12.1044 19.5202 13.0171 19.7164 13.1568C19.8606 13.2711 20.071 13.0807 20.1751 12.7645C20.3464 12.1807 20.2932 11.9014 20.0048 12.003ZM27.8261 12.0664C27.5636 12.1933 27.3675 13.0934 27.5636 13.1948C27.8261 13.3333 28.1677 12.8521 28.1677 12.333C28.1677 12.0906 28.0235 11.9776 27.8261 12.0664ZM22.5248 15.0837L22.4587 15.311C22.4197 15.4264 22.3936 15.5268 22.3806 15.5395C22.3806 15.5522 22.4457 15.528 22.5378 15.4761C22.8003 15.3491 22.8794 15.3237 23.2588 15.311L23.5874 15.2994C23.6406 15.1472 23.6536 15.0837 23.6536 15.071C23.6655 15.0583 22.5378 15.0583 22.5248 15.0826V15.0837ZM22.3015 15.8187L22.2494 16.0217L23.3771 16.0091L23.4432 15.806C22.5509 15.806 22.3015 15.806 22.3015 15.8176V15.8187ZM25.871 15.3618C25.819 15.5268 25.7788 15.6538 25.7919 15.6538L25.9503 15.6029C26.0283 15.5775 26.1725 15.5395 26.2517 15.5268C26.3309 15.5153 26.3959 15.5014 26.4088 15.5014C26.4088 15.5014 26.5401 15.109 26.5401 15.0964C26.5401 15.0964 26.41 15.0837 26.2517 15.0837H25.9632L25.871 15.3618ZM25.6607 16.008C25.6607 16.0217 25.6087 16.1487 25.5697 16.2999C25.5165 16.4522 25.4774 16.5918 25.4774 16.5918C25.4774 16.6045 25.5425 16.5802 25.6346 16.541C25.7268 16.5029 25.8581 16.4649 25.9373 16.4522C26.1074 16.4268 26.1204 16.4141 26.1335 16.3506C26.1465 16.3252 26.1725 16.2237 26.1997 16.1487L26.2517 15.9964H25.9632C25.8061 15.9964 25.6607 15.9964 25.6607 16.008ZM25.202 17.4664L25.7788 17.4791C25.8971 17.0983 25.9373 16.9714 25.9373 16.9598L25.3593 16.9344L25.202 17.4664Z" fill="white"/>
</g>
<defs>
<clipPath id="clip0_506_82884">
<rect width="40.9231" height="28" fill="white" transform="translate(0.115723)"/>
</clipPath>
</defs>
</svg>
