<svg width="42" height="28" viewBox="0 0 42 28" fill="none" xmlns="http://www.w3.org/2000/svg">
<g clip-path="url(#clip0_506_82892)">
<path d="M36.1795 1.0769H4.975C2.88605 1.0769 1.19263 2.73 1.19263 4.76921V23.2307C1.19263 25.27 2.88605 26.9231 4.975 26.9231H36.1795C38.2684 26.9231 39.9619 25.27 39.9619 23.2307V4.76921C39.9619 2.73 38.2684 1.0769 36.1795 1.0769Z" fill="white" stroke="black" stroke-opacity="0.1"/>
<path d="M22.7686 18.606C21.9256 18.606 21.0912 18.4409 20.3148 18.1205L20.7204 16.1423C21.4002 16.5295 22.1727 16.7346 22.9596 16.7368H23.0192C23.6896 16.7267 24.3667 16.4442 24.3667 15.8368C24.3762 15.4491 24.0593 15.1408 23.1979 14.6987C22.6649 14.5056 22.198 14.1707 21.85 13.7319C21.5021 13.2929 21.287 12.7677 21.2292 12.2156C21.2292 10.435 22.779 9.19067 24.9983 9.19067C25.7219 9.19343 26.4384 9.33129 27.1088 9.59682L26.7136 11.575C26.1534 11.2959 25.5336 11.1494 24.9047 11.1476C24.766 11.1476 24.6275 11.1546 24.4896 11.1688C23.839 11.2612 23.544 11.6166 23.544 11.9312C23.544 12.3144 24.0111 12.5709 24.6021 12.896C25.5401 13.4119 26.7069 14.0534 26.7004 15.5618L26.7476 15.4824C26.7382 17.3811 25.1949 18.608 22.8187 18.608L22.7686 18.606ZM29.0095 18.5276H26.638L30.0213 10.0519C30.0901 9.85916 30.2175 9.6915 30.3865 9.57126C30.5553 9.45103 30.7579 9.38395 30.9669 9.37898H32.8514L34.6783 18.5285H32.5838L32.3106 17.1633H29.4738L29.0123 18.5285L29.0095 18.5276ZM31.2524 11.85L30.0676 15.283H31.9427L31.2524 11.85ZM18.7016 18.4962H16.4426L18.3272 9.34945H20.5881L18.7035 18.499L18.7016 18.4962ZM13.7552 18.4658H11.2967L9.50008 11.155C9.4867 10.988 9.43038 10.8271 9.33633 10.687C9.24229 10.5469 9.11354 10.4323 8.96204 10.3538C8.25861 10.0024 7.51037 9.74415 6.73706 9.58575L6.79379 9.31898H10.6291C10.8889 9.32527 11.1375 9.42284 11.3296 9.59378C11.5215 9.76471 11.6438 9.99753 11.674 10.2494L12.6196 15.5414L14.9637 9.31898H17.4128L13.7572 18.4685L13.7552 18.4658Z" fill="#2A2A6C"/>
</g>
<defs>
<clipPath id="clip0_506_82892">
<rect width="40.9231" height="28" fill="white" transform="translate(0.115723)"/>
</clipPath>
</defs>
</svg>
